# xmcd CD database file
#
# Track frame offsets:
#	150
#	19125
#	43387
#
# Disc length: 830 seconds
#
# Revision: 0
# Processed by: cddbd v1.5.1PL0 Copyright (c) Steve Scherf et al.
# Submitted via: CDex 1.51
#
DISCID=22033c03
DTITLE=森口博子 - 夢がMORi MORi
DYEAR=1992
DGENRE=JPop
TTITLE0=夢がMORi MORi
TTITLE1=水色のくちぶえ
TTITLE2=夢がMORi MORi(カラオケ)
EXTD=YEAR: 1992
EXTT0=
EXTT1=
EXTT2=
PLAYORDER=
